<svg xmlns="http://www.w3.org/2000/svg" viewBox="0 0 800 480" width="800" height="480">
  <defs>
    <linearGradient id="bgM" x1="0" y1="0" x2="0" y2="1">
      <stop offset="0%" stop-color="#1a1a1f"/>
      <stop offset="100%" stop-color="#0a0a0a"/>
    </linearGradient>
    <linearGradient id="goldFade" x1="0" y1="0" x2="1" y2="0">
      <stop offset="0%" stop-color="transparent"/>
      <stop offset="50%" stop-color="#D4A847"/>
      <stop offset="100%" stop-color="transparent"/>
    </linearGradient>
    <linearGradient id="scoreFill" x1="0" y1="0" x2="1" y2="0">
      <stop offset="0%" stop-color="#D4A847"/>
      <stop offset="100%" stop-color="#b8942e"/>
    </linearGradient>
  </defs>

  <!-- Browser frame -->
  <rect width="800" height="480" rx="14" fill="url(#bgM)"/>
  <rect width="800" height="36" rx="14" fill="#18181b"/>
  <rect y="20" width="800" height="16" fill="#18181b"/>
  <circle cx="20" cy="18" r="5" fill="#ef4444"/>
  <circle cx="38" cy="18" r="5" fill="#fbbf24"/>
  <circle cx="56" cy="18" r="5" fill="#4ade80"/>
  <text x="400" y="22" font-family="ui-monospace,Menlo,monospace" font-size="11" fill="#71717a" text-anchor="middle">assessment.valuetovictory.com/member</text>
  <rect x="0" y="36" width="800" height="2" fill="url(#goldFade)" opacity="0.6"/>

  <!-- Welcome banner -->
  <rect x="24" y="56" width="752" height="60" rx="10" fill="#18181b" stroke="#27272a"/>
  <text x="40" y="80" font-family="Satoshi,sans-serif" font-size="11" fill="#71717a" letter-spacing="2">WELCOME BACK</text>
  <text x="40" y="103" font-family="Instrument Serif,serif" font-style="italic" font-size="20" fill="#fff">Your Master Value Score</text>
  <rect x="640" y="68" width="120" height="40" rx="6" fill="rgba(212,168,71,0.1)" stroke="rgba(212,168,71,0.3)"/>
  <text x="700" y="93" font-family="Satoshi,sans-serif" font-weight="900" font-size="20" fill="#D4A847" text-anchor="middle">171</text>

  <!-- Score card (big number) -->
  <rect x="24" y="132" width="368" height="180" rx="10" fill="#18181b" stroke="#27272a"/>
  <text x="40" y="158" font-family="Satoshi,sans-serif" font-size="10" fill="#D4A847" letter-spacing="2" font-weight="700">MASTER SCORE · 30-DAY TREND</text>
  <text x="40" y="210" font-family="Satoshi,sans-serif" font-weight="900" font-size="56" fill="#D4A847">171</text>
  <text x="160" y="210" font-family="Satoshi,sans-serif" font-size="14" fill="#71717a">/ 200</text>
  <text x="40" y="232" font-family="Satoshi,sans-serif" font-size="11" fill="#4ade80">▲ +14 since last month</text>

  <!-- Mini sparkline -->
  <polyline points="40,290 90,278 140,272 190,260 240,254 290,242 340,228" fill="none" stroke="#D4A847" stroke-width="2" stroke-linecap="round" stroke-linejoin="round"/>
  <circle cx="340" cy="228" r="4" fill="#D4A847"/>

  <!-- Pillar bars -->
  <rect x="408" y="132" width="368" height="180" rx="10" fill="#18181b" stroke="#27272a"/>
  <text x="424" y="158" font-family="Satoshi,sans-serif" font-size="10" fill="#D4A847" letter-spacing="2" font-weight="700">PILLAR BREAKDOWN</text>

  <!-- Pillar rows -->
  <text x="424" y="184" font-family="Satoshi,sans-serif" font-size="11" fill="#a1a1aa">P · People</text>
  <rect x="510" y="176" width="220" height="10" rx="3" fill="#27272a"/>
  <rect x="510" y="176" width="156" height="10" rx="3" fill="#f472b6"/>
  <text x="744" y="184" font-family="Satoshi,sans-serif" font-size="11" fill="#fff" text-anchor="end">35</text>

  <text x="424" y="208" font-family="Satoshi,sans-serif" font-size="11" fill="#a1a1aa">I · Influence</text>
  <rect x="510" y="200" width="220" height="10" rx="3" fill="#27272a"/>
  <rect x="510" y="200" width="132" height="10" rx="3" fill="#2dd4bf"/>
  <text x="744" y="208" font-family="Satoshi,sans-serif" font-size="11" fill="#fff" text-anchor="end">30</text>

  <text x="424" y="232" font-family="Satoshi,sans-serif" font-size="11" fill="#a1a1aa">N · Numbers</text>
  <rect x="510" y="224" width="220" height="10" rx="3" fill="#27272a"/>
  <rect x="510" y="224" width="180" height="10" rx="3" fill="#60a5fa"/>
  <text x="744" y="232" font-family="Satoshi,sans-serif" font-size="11" fill="#fff" text-anchor="end">41</text>

  <text x="424" y="256" font-family="Satoshi,sans-serif" font-size="11" fill="#a1a1aa">K · Knowledge</text>
  <rect x="510" y="248" width="220" height="10" rx="3" fill="#27272a"/>
  <rect x="510" y="248" width="160" height="10" rx="3" fill="#a78bfa"/>
  <text x="744" y="256" font-family="Satoshi,sans-serif" font-size="11" fill="#fff" text-anchor="end">36</text>

  <text x="424" y="280" font-family="Satoshi,sans-serif" font-size="11" fill="#D4A847" font-weight="700">T · Time (multiplier)</text>
  <rect x="510" y="272" width="220" height="10" rx="3" fill="#27272a"/>
  <rect x="510" y="272" width="65" height="10" rx="3" fill="#ef4444"/>
  <text x="744" y="280" font-family="Satoshi,sans-serif" font-size="11" fill="#ef4444" font-weight="700" text-anchor="end">LEAK</text>
  <text x="424" y="298" font-family="Satoshi,sans-serif" font-size="9" fill="#ef4444" font-style="italic">⚠ Time leak detected — see Action Plan</text>

  <!-- Today's coaching card -->
  <rect x="24" y="332" width="752" height="120" rx="10" fill="#0e0e10" stroke="rgba(74,222,128,0.25)"/>
  <text x="40" y="358" font-family="Satoshi,sans-serif" font-size="10" fill="#4ade80" letter-spacing="2" font-weight="700">TODAY'S COACHING · 7:00 AM</text>
  <text x="40" y="385" font-family="Instrument Serif,serif" font-style="italic" font-size="16" fill="#fff">"Your Time pillar is leaking — 3 calendar blocks today don't compound."</text>
  <text x="40" y="408" font-family="Satoshi,sans-serif" font-size="12" fill="#d4d4d8">▸ Move the 2pm meeting to async (saves 90 min)</text>
  <text x="40" y="427" font-family="Satoshi,sans-serif" font-size="12" fill="#d4d4d8">▸ Bundle the 2 errands at 4pm (saves 45 min)</text>

  <!-- Read more pill -->
  <rect x="640" y="402" width="120" height="28" rx="14" fill="#D4A847"/>
  <text x="700" y="421" font-family="Satoshi,sans-serif" font-size="11" font-weight="700" fill="#0a0a0a" text-anchor="middle">View Full Plan →</text>
</svg>
