<svg xmlns="http://www.w3.org/2000/svg" viewBox="0 0 1080 1080" width="1080" height="1080">
  <defs>
    <linearGradient id="bg3" x1="0" y1="0" x2="1" y2="1">
      <stop offset="0" stop-color="#0a0a0a"/>
      <stop offset="1" stop-color="#1a0f1c"/>
    </linearGradient>
    <linearGradient id="goldG" x1="0" y1="0" x2="1" y2="1">
      <stop offset="0" stop-color="#F5C76A"/>
      <stop offset="1" stop-color="#B8862E"/>
    </linearGradient>
  </defs>
  <rect width="1080" height="1080" fill="url(#bg3)"/>
  <text x="540" y="120" font-family="Arial, sans-serif" font-size="22" letter-spacing="8" font-weight="700" fill="#f87171" text-anchor="middle">DO THE MATH</text>
  <text x="540" y="220" font-family="Georgia, serif" font-style="italic" font-size="68" fill="#fff" text-anchor="middle">What $710/mo</text>
  <text x="540" y="290" font-family="Georgia, serif" font-style="italic" font-size="68" fill="#fff" text-anchor="middle">of "AI coaching" gets you:</text>
  <!-- Stack rows -->
  <g font-family="Arial, sans-serif" font-size="36" fill="#d4d4d8">
    <rect x="120" y="350" width="840" height="72" rx="10" fill="#27272a"/>
    <text x="160" y="398" font-weight="600" fill="#fff">BetterHelp</text>
    <text x="920" y="398" text-anchor="end" font-weight="700" fill="#f87171">$260/mo</text>
    <rect x="120" y="440" width="840" height="72" rx="10" fill="#27272a"/>
    <text x="160" y="488" font-weight="600" fill="#fff">BetterUp coaching</text>
    <text x="920" y="488" text-anchor="end" font-weight="700" fill="#f87171">$300/mo</text>
    <rect x="120" y="530" width="840" height="72" rx="10" fill="#27272a"/>
    <text x="160" y="578" font-weight="600" fill="#fff">5× ChatGPT Plus seats</text>
    <text x="920" y="578" text-anchor="end" font-weight="700" fill="#f87171">$100/mo</text>
    <rect x="120" y="620" width="840" height="72" rx="10" fill="#27272a"/>
    <text x="160" y="668" font-weight="600" fill="#fff">DiSC license</text>
    <text x="920" y="668" text-anchor="end" font-weight="700" fill="#f87171">$50/mo</text>
  </g>
  <line x1="120" y1="730" x2="960" y2="730" stroke="#52525b" stroke-width="2"/>
  <text x="160" y="790" font-family="Arial, sans-serif" font-size="44" font-weight="800" fill="#fff">TOTAL</text>
  <text x="920" y="790" font-family="Arial, sans-serif" font-size="44" font-weight="800" fill="#f87171" text-anchor="end">$710/mo</text>
  <text x="540" y="900" font-family="Georgia, serif" font-style="italic" font-size="56" fill="#d4d4d8" text-anchor="middle">VTV Skill Pack Bundle:</text>
  <rect x="290" y="940" width="500" height="100" rx="14" fill="url(#goldG)"/>
  <text x="540" y="1005" font-family="Arial, sans-serif" font-size="56" font-weight="800" fill="#0a0a0a" text-anchor="middle">$197 · ONCE</text>
</svg>
