<svg xmlns="http://www.w3.org/2000/svg" viewBox="0 0 1080 1080" width="1080" height="1080">
  <defs>
    <linearGradient id="bg5" x1="0" y1="0" x2="1" y2="1">
      <stop offset="0" stop-color="#0a0a0a"/>
      <stop offset="1" stop-color="#1c1c20"/>
    </linearGradient>
  </defs>
  <rect width="1080" height="1080" fill="url(#bg5)"/>
  <text x="540" y="100" font-family="Arial, sans-serif" font-size="22" letter-spacing="6" font-weight="700" fill="#22d3ee" text-anchor="middle">10 PROFESSION-SPECIFIC SKILL PACKS</text>
  <text x="540" y="180" font-family="Georgia, serif" font-style="italic" font-size="64" font-weight="700" fill="#fff" text-anchor="middle">Built for the work you actually do.</text>
  <!-- 5 cols x 2 rows of profession chips -->
  <g font-family="Arial, sans-serif" font-size="22" fill="#fff" font-weight="600">
    <rect x="60"  y="280" width="190" height="180" rx="14" fill="#1c1c20" stroke="#27272a"/><text x="155" y="370" text-anchor="middle">Real Estate</text><text x="155" y="400" text-anchor="middle" font-size="18" fill="#a1a1aa">Pros</text>
    <rect x="270" y="280" width="190" height="180" rx="14" fill="#1c1c20" stroke="#27272a"/><text x="365" y="370" text-anchor="middle">Coaches &amp;</text><text x="365" y="400" text-anchor="middle" font-size="18" fill="#a1a1aa">Therapists</text>
    <rect x="480" y="280" width="190" height="180" rx="14" fill="#1c1c20" stroke="#27272a"/><text x="575" y="370" text-anchor="middle">Authors &amp;</text><text x="575" y="400" text-anchor="middle" font-size="18" fill="#a1a1aa">Speakers</text>
    <rect x="690" y="280" width="190" height="180" rx="14" fill="#1c1c20" stroke="#27272a"/><text x="785" y="370" text-anchor="middle">Pastors &amp;</text><text x="785" y="400" text-anchor="middle" font-size="18" fill="#a1a1aa">Ministry</text>
    <rect x="900" y="280" width="120" height="180" rx="14" fill="#D4A847"/><text x="960" y="380" text-anchor="middle" font-size="44" font-weight="800" fill="#0a0a0a">+5</text>
    <rect x="60"  y="490" width="190" height="180" rx="14" fill="#1c1c20" stroke="#27272a"/><text x="155" y="580" text-anchor="middle">Solo</text><text x="155" y="610" text-anchor="middle" font-size="18" fill="#a1a1aa">Consultants</text>
    <rect x="270" y="490" width="190" height="180" rx="14" fill="#1c1c20" stroke="#27272a"/><text x="365" y="580" text-anchor="middle">Small</text><text x="365" y="610" text-anchor="middle" font-size="18" fill="#a1a1aa">Business</text>
    <rect x="480" y="490" width="190" height="180" rx="14" fill="#1c1c20" stroke="#27272a"/><text x="575" y="580" text-anchor="middle">Event</text><text x="575" y="610" text-anchor="middle" font-size="18" fill="#a1a1aa">Producers</text>
    <rect x="690" y="490" width="190" height="180" rx="14" fill="#1c1c20" stroke="#27272a"/><text x="785" y="580" text-anchor="middle">Service</text><text x="785" y="610" text-anchor="middle" font-size="18" fill="#a1a1aa">Pros</text>
    <rect x="900" y="490" width="120" height="180" rx="14" fill="#1c1c20" stroke="#27272a"/><text x="960" y="580" text-anchor="middle" font-size="20">Sales</text><text x="960" y="610" text-anchor="middle" font-size="18" fill="#a1a1aa">Pros</text>
  </g>
  <text x="540" y="780" font-family="Arial, sans-serif" font-size="34" font-weight="600" fill="#d4d4d8" text-anchor="middle">Voice rules · 5 templates · 3 AI prompts · weekly dashboard</text>
  <rect x="240" y="850" width="600" height="110" rx="16" fill="#D4A847"/>
  <text x="540" y="920" font-family="Arial, sans-serif" font-size="48" font-weight="800" fill="#0a0a0a" text-anchor="middle">$197 · ALL TEN</text>
  <text x="540" y="1010" font-family="Arial, sans-serif" font-size="22" fill="#a1a1aa" text-anchor="middle">assessment.valuetovictory.com/professionals</text>
</svg>
