<svg xmlns="http://www.w3.org/2000/svg" viewBox="0 0 1080 1920" width="1080" height="1920">
  <defs>
    <linearGradient id="bg" x1="0" y1="0" x2="0" y2="1">
      <stop offset="0" stop-color="#0a0a0a"/>
      <stop offset="0.5" stop-color="#101822"/>
      <stop offset="1" stop-color="#0a0a0a"/>
    </linearGradient>
    <radialGradient id="cyan" cx="0.5" cy="0.5" r="0.55">
      <stop offset="0" stop-color="#22d3ee" stop-opacity="0.5"/>
      <stop offset="1" stop-color="#22d3ee" stop-opacity="0"/>
    </radialGradient>
  </defs>
  <rect width="1080" height="1920" fill="url(#bg)"/>
  <circle cx="540" cy="900" r="420" fill="url(#cyan)"/>
  <text x="540" y="240" font-family="Arial, sans-serif" font-size="28" letter-spacing="8" font-weight="700" fill="#22d3ee" text-anchor="middle">YOUR JARVIS</text>
  <text x="540" y="320" font-family="Georgia, serif" font-style="italic" font-size="56" fill="#a1a1aa" text-anchor="middle">Inspired by Iron Man.</text>
  <!-- Graph -->
  <g stroke="#22d3ee" stroke-width="2" stroke-opacity="0.6" fill="none" transform="translate(0,360)">
    <line x1="540" y1="540" x2="320" y2="380"/>
    <line x1="540" y1="540" x2="760" y2="380"/>
    <line x1="540" y1="540" x2="320" y2="700"/>
    <line x1="540" y1="540" x2="760" y2="700"/>
    <line x1="540" y1="540" x2="540" y2="320"/>
    <line x1="540" y1="540" x2="540" y2="760"/>
    <line x1="540" y1="540" x2="220" y2="540"/>
    <line x1="540" y1="540" x2="860" y2="540"/>
    <line x1="320" y1="380" x2="540" y2="320"/>
    <line x1="760" y1="380" x2="540" y2="320"/>
    <line x1="320" y1="700" x2="540" y2="760"/>
    <line x1="760" y1="700" x2="540" y2="760"/>
  </g>
  <g transform="translate(0,360)">
    <circle cx="540" cy="540" r="56" fill="#D4A847" stroke="#fff" stroke-width="4"/>
    <circle cx="320" cy="380" r="28" fill="#22d3ee"/>
    <circle cx="760" cy="380" r="28" fill="#22d3ee"/>
    <circle cx="320" cy="700" r="28" fill="#22d3ee"/>
    <circle cx="760" cy="700" r="28" fill="#22d3ee"/>
    <circle cx="540" cy="320" r="22" fill="#a78bfa"/>
    <circle cx="540" cy="760" r="22" fill="#a78bfa"/>
    <circle cx="220" cy="540" r="22" fill="#4ade80"/>
    <circle cx="860" cy="540" r="22" fill="#4ade80"/>
    <text x="540" y="558" font-family="Arial, sans-serif" font-size="40" font-weight="800" fill="#0a0a0a" text-anchor="middle">YOU</text>
  </g>
  <text x="540" y="1500" font-family="Georgia, serif" font-style="italic" font-size="86" font-weight="700" fill="#fff" text-anchor="middle">Your second brain,</text>
  <text x="540" y="1600" font-family="Georgia, serif" font-style="italic" font-size="86" font-weight="700" fill="#22d3ee" text-anchor="middle">on your machine.</text>
  <text x="540" y="1740" font-family="Arial, sans-serif" font-size="36" font-weight="600" fill="#d4d4d8" text-anchor="middle">Local. Private. Yours forever.</text>
  <text x="540" y="1830" font-family="Arial, sans-serif" font-size="32" font-weight="700" fill="#D4A847" text-anchor="middle">$197 · /professionals</text>
</svg>
